<?xml version="1.0" standalone="no"?>
<!DOCTYPE svg PUBLIC "-//W3C//DTD SVG 20010904//EN"
 "http://www.w3.org/TR/2001/REC-SVG-20010904/DTD/svg10.dtd">
<svg version="1.0" xmlns="http://www.w3.org/2000/svg"
 width="512.000000pt" height="512.000000pt" viewBox="0 0 512.000000 512.000000"
 preserveAspectRatio="xMidYMid meet">
<metadata>
Created by potrace 1.14, written by Peter Selinger 2001-2017
</metadata>
<g transform="translate(0.000000,512.000000) scale(0.100000,-0.100000)"
fill="#000000" stroke="none">
<path d="M2460 4434 c-207 -17 -423 -63 -572 -123 -282 -112 -550 -297 -733
-509 -240 -275 -395 -609 -451 -972 -22 -139 -22 -401 0 -540 82 -530 370
-989 805 -1281 237 -160 495 -261 781 -305 140 -22 410 -22 550 0 531 82 989
370 1281 805 216 321 321 665 321 1051 0 186 -16 315 -62 488 -172 642 -680
1150 -1322 1322 -182 48 -446 76 -598 64z m450 -327 c626 -150 1071 -602 1212
-1229 20 -90 23 -130 23 -318 0 -188 -3 -228 -23 -318 -142 -634 -600 -1092
-1234 -1234 -91 -20 -129 -23 -323 -23 -194 0 -232 3 -323 23 -634 142 -1092
600 -1234 1234 -20 90 -23 130 -23 318 0 188 3 228 23 318 152 677 669 1156
1357 1256 17 2 122 3 235 1 177 -3 219 -6 310 -28z"/>
<path d="M1543 3544 c-31 -7 -70 -50 -77 -85 -9 -47 -7 -201 4 -307 19 -180
89 -331 214 -460 166 -172 357 -241 668 -242 l97 0 3 -405 3 -405 32 -31 c44
-45 102 -45 146 0 l32 31 3 239 3 238 167 6 c196 7 284 26 400 87 197 102 337
280 393 495 14 57 21 117 22 207 l2 127 -33 33 -32 33 -238 -1 c-207 -1 -247
-4 -317 -23 -108 -28 -226 -88 -307 -155 l-66 -55 -7 42 c-42 253 -243 493
-489 584 -95 35 -163 44 -381 48 -121 2 -230 1 -242 -1z m533 -239 c170 -57
292 -179 349 -348 20 -62 25 -95 25 -181 l0 -106 -153 0 c-231 0 -333 36 -457
160 -113 113 -160 231 -160 402 l0 98 161 0 c145 0 168 -2 235 -25z m1364
-456 c0 -207 -180 -429 -399 -493 -40 -12 -97 -16 -213 -16 l-158 0 0 48 c0
111 63 245 160 342 124 124 221 158 453 159 l157 1 0 -41z"/>
</g>
</svg>
